<svg width="35" height="35" viewBox="0 0 35 35" fill="none" xmlns="http://www.w3.org/2000/svg">
<path d="M13.1252 27.7083C13.1252 28.8021 12.8189 29.8375 12.2793 30.7125C11.2731 32.4042 9.421 33.5417 7.29183 33.5417C5.16266 33.5417 3.31058 32.4042 2.30433 30.7125C1.76475 29.8375 1.4585 28.8021 1.4585 27.7083C1.4585 24.4854 4.06891 21.875 7.29183 21.875C10.5147 21.875 13.1252 24.4854 13.1252 27.7083Z" stroke="#FF6687" stroke-width="2" stroke-miterlimit="10" stroke-linecap="round" stroke-linejoin="round"/>
<path d="M5.01904 27.7076L6.4628 29.1514L9.56905 26.2785" stroke="#FF6687" stroke-width="2" stroke-linecap="round" stroke-linejoin="round"/>
<path d="M25.8876 10.2812C25.5376 10.2229 25.1731 10.2083 24.7939 10.2083H10.2105C9.80222 10.2083 9.40846 10.2375 9.0293 10.2958C9.23346 9.88747 9.52513 9.50835 9.87513 9.15835L14.6147 4.40417C16.6126 2.42083 19.8501 2.42083 21.848 4.40417L24.4001 6.98536C25.3335 7.90411 25.8293 9.07079 25.8876 10.2812Z" stroke="#121111" stroke-width="2" stroke-linecap="round" stroke-linejoin="round"/>
<path d="M32.0832 17.5V24.7917C32.0832 29.1667 29.1665 32.0833 24.7915 32.0833H11.1269C11.579 31.7042 11.9728 31.2375 12.279 30.7125C12.8186 29.8375 13.1248 28.8021 13.1248 27.7083C13.1248 24.4854 10.5144 21.875 7.2915 21.875C5.5415 21.875 3.98109 22.6479 2.9165 23.8583V17.5C2.9165 13.5333 5.30817 10.7625 9.02692 10.2958C9.40608 10.2375 9.79984 10.2083 10.2082 10.2083H24.7915C25.1707 10.2083 25.5353 10.2229 25.8853 10.2812C29.6478 10.7187 32.0832 13.5042 32.0832 17.5Z" stroke="#121111" stroke-width="2" stroke-linecap="round" stroke-linejoin="round"/>
<path d="M32.0832 18.2292H27.7082C26.104 18.2292 24.7915 19.5417 24.7915 21.1458C24.7915 22.75 26.104 24.0625 27.7082 24.0625H32.0832" stroke="#121111" stroke-width="2" stroke-linecap="round" stroke-linejoin="round"/>
</svg>
